<?xml version="1.0" encoding="utf-8"?>
<!-- Generator: Adobe Illustrator 21.0.2, SVG Export Plug-In . SVG Version: 6.00 Build 0)  -->
<svg version="1.1" xmlns="http://www.w3.org/2000/svg" xmlns:xlink="http://www.w3.org/1999/xlink" x="0px" y="0px"
	 viewBox="0 0 50 50" enable-background="new 0 0 50 50" xml:space="preserve">
<g id="Layer_1">
	<g>
		<g>
			<path fill="#E3DCCB" d="M24.9,0.1C11.2,0.1,0.1,11.3,0.1,24.9c0,13.7,11.1,24.8,24.8,24.8c6.6,0,12.9-2.6,17.5-7.3
				c4.7-4.7,7.3-10.9,7.3-17.5c0-6.6-2.6-12.9-7.3-17.5C37.7,2.7,31.5,0.1,24.9,0.1z M16.8,39.6l8.9-8.9H9.3l0-10.9l16.1,0l-8.6-8.6
				l14.1,0l14.2,14.2L30.9,39.6L16.8,39.6z"/>
		</g>
	</g>
	<g display="none">
		<g display="inline">
			<g>
				<path fill="#E3DCCB" d="M35,10.6c0-0.8,0-1.4,0-1.6c0-3.2-2.2-8.7-9.1-8.7h-0.3c-7.4,0-9.1,5.6-9.1,8.7c0,0.2,0,0.8,0,1.6
					c-0.7,0-1.3,0.6-1.3,1.3v3.3c0,0.7,0.6,1.3,1.3,1.3c0,0,0,0,0.1,0c0.5,4.7,6,10.1,9,10.1h0.3c3.1,0,8.5-5.3,9-10.1
					c0,0,0,0,0.1,0c0.7,0,1.3-0.6,1.3-1.3v-3.3C36.3,11.2,35.7,10.6,35,10.6z"/>
				<g>
					<path fill="#E3DCCB" d="M16.7,29c-5.6,0-10.2,4.6-10.2,10.2v10.4H26L17,29H16.7z"/>
					<path fill="#E3DCCB" d="M35.3,29h-0.9L26,49.6h19.4V39.2C45.4,33.6,40.9,29,35.3,29z"/>
				</g>
				<g>
					<polygon fill="#E3DCCB" points="25.8,30.2 20.6,27.2 20.6,33 					"/>
					<polygon fill="#E3DCCB" points="25.8,30.2 30.9,27.2 30.9,33 					"/>
					<circle fill="#E3DCCB" cx="25.8" cy="30.2" r="1.6"/>
				</g>
			</g>
		</g>
	</g>
</g>
<g id="Layer_2" display="none">
	<g display="inline">
		<g>
			<g>
				<g>
					<path fill="#FFFFFF" d="M48.7,13.2c-0.5-2.9-3.1-3.4-3.1-3.4s-6.2,0-9.5,0c-2.8,1.2-3.1,3.7-3.1,3.7l0,14.8
						c0,2.3,3.2,2.3,3.2,0c0-4.4,0-8.8,0-13.3c0-0.1,0-0.2,0.2-0.3c0.2,0,0.3,0.3,0.3,0.3l0.2,33.4c0.8,1.4,3.1,1.3,4,0
						c0-6.1,0-12.3,0-18.4c0-0.1,0.1-0.4,0.3-0.4c0.1,0,0.2,0.4,0.2,0.4l0,18.4c0.8,1.1,2.5,1.6,3.9,0L45,15c0-0.2,0.1-0.3,0.3-0.3
						c0.2,0,0.3,0.3,0.3,0.3l0.1,13.3c0,2.2,3,2.3,3,0C48.7,23.3,48.7,18.3,48.7,13.2z"/>
					<ellipse fill="#FFFFFF" cx="40.9" cy="4.6" rx="3.8" ry="4.2"/>
				</g>
			</g>
		</g>
		<g>
			<g>
				<g>
					<path fill="#FFFFFF" d="M32,13.2c-0.5-2.9-3.1-3.4-3.1-3.4s-6.2,0-9.5,0c-2.8,1.2-3.1,3.7-3.1,3.7l0,14.8c0,2.3,3.2,2.3,3.2,0
						c0-4.4,0-8.8,0-13.3c0-0.1,0-0.2,0.2-0.3c0.2,0,0.3,0.3,0.3,0.3l0.2,33.4c0.8,1.4,3.1,1.3,4,0c0-6.1,0-12.3,0-18.4
						c0-0.1,0.1-0.4,0.3-0.4c0.1,0,0.2,0.4,0.2,0.4l0,18.4c0.8,1.1,2.5,1.6,3.9,0L28.3,15c0-0.2,0.1-0.3,0.3-0.3
						c0.2,0,0.3,0.3,0.3,0.3L29,28.4c0,2.2,3,2.3,3,0C32,23.3,32,18.3,32,13.2z"/>
					<ellipse fill="#FFFFFF" cx="24.3" cy="4.6" rx="3.8" ry="4.2"/>
				</g>
			</g>
		</g>
		<g>
			<g>
				<g>
					<path fill="#FFFFFF" d="M15.3,13.2c-0.5-2.9-3.1-3.4-3.1-3.4s-6.2,0-9.5,0c-2.8,1.2-3.1,3.7-3.1,3.7l0,14.8
						c0,2.3,3.2,2.3,3.2,0c0-4.4,0-8.8,0-13.3c0-0.1,0-0.2,0.2-0.3c0.2,0,0.3,0.3,0.3,0.3l0.2,33.4c0.8,1.4,3.1,1.3,4,0
						c0-6.1,0-12.3,0-18.4c0-0.1,0.1-0.4,0.3-0.4c0.1,0,0.2,0.4,0.2,0.4l0,18.4c0.8,1.1,2.5,1.6,3.9,0L11.7,15
						c0-0.2,0.1-0.3,0.3-0.3c0.2,0,0.3,0.3,0.3,0.3l0.1,13.3c0,2.2,3,2.3,3,0C15.3,23.3,15.3,18.3,15.3,13.2z"/>
					<ellipse fill="#FFFFFF" cx="7.6" cy="4.6" rx="3.8" ry="4.2"/>
				</g>
			</g>
		</g>
	</g>
	<g display="inline">
		<g>
			<g>
				<g>
					<path fill="#E3DCCB" d="M40,0.2H10C6.6,0.2,3.9,3,3.9,6.4v37.1c0,3.4,2.8,6.1,6.1,6.1h30c3.4,0,6.1-2.8,6.1-6.1V6.4
						C46.1,3,43.3,0.2,40,0.2z M41,40.1c0,2.2-1.8,4.1-4.1,4.1H13.1c-2.2,0-4.1-1.8-4.1-4.1V9.7c0-2.2,1.8-4.1,4.1-4.1h23.8
						c2.2,0,4.1,1.8,4.1,4.1V40.1z"/>
					<path fill="#E3DCCB" d="M35.1,22.2H14.9c-1.1,0-2,0.9-2,2v1.9c0,1.1,0.9,2,2,2h20.3c1.1,0,2-0.9,2-2v-1.9
						C37.2,23.1,36.2,22.2,35.1,22.2z"/>
					<path fill="#E3DCCB" d="M35.1,13H14.9c-1.1,0-2,0.9-2,2v1.9c0,1.1,0.9,2,2,2h20.3c1.1,0,2-0.9,2-2v-1.9
						C37.2,13.9,36.2,13,35.1,13z"/>
					<path fill="#E3DCCB" d="M35.1,31.4H14.9c-1.1,0-2,0.9-2,2v1.9c0,1.1,0.9,2,2,2h20.3c1.1,0,2-0.9,2-2v-1.9
						C37.2,32.3,36.2,31.4,35.1,31.4z"/>
				</g>
			</g>
		</g>
	</g>
	<g display="inline">
		<g>
			<path fill="#E3DCCB" d="M4.1,46.9v0.5c0,1.1,0.8,2.1,1.8,2.1h41.8c1,0,1.8-0.9,1.8-2.1v-0.5c0-1.1-0.8-2.1-1.8-2.1H34.5
				l14.1-11.6L23.5,0.4L0.1,20.5l19.2,24.4H5.9C4.9,44.8,4.1,45.7,4.1,46.9z M21.7,23L4.8,19.6L21.7,5.2V23z M44.5,31.5L23.4,28
				l0.9-22.5L44.5,31.5z M27.2,46.9l0.3-15.6l16.2,2.8L29,46.9L27.2,46.9z M23.5,46.7l-18.7-24l16.3,2.8c0.4,1.4-0.1,2.9,0.1,4.4
				c1.1,0.6,2.9,0.4,4,1.1L25,46.7H23.5z"/>
		</g>
	</g>
</g>
</svg>
